<?xml version="1.0" standalone="no"?>
<!DOCTYPE svg PUBLIC "-//W3C//DTD SVG 20010904//EN"
 "http://www.w3.org/TR/2001/REC-SVG-20010904/DTD/svg10.dtd">
<svg version="1.0" xmlns="http://www.w3.org/2000/svg"
 width="200.000000pt" height="200.000000pt" viewBox="0 0 200.000000 200.000000"
 preserveAspectRatio="xMidYMid meet">

<g transform="translate(0.000000,200.000000) scale(0.100000,-0.100000)"
fill="#000000" stroke="none">
<path d="M905 1803 c-196 -26 -404 -140 -523 -287 -269 -330 -248 -790 49
-1086 82 -82 137 -121 232 -165 117 -53 195 -69 337 -69 214 -1 389 65 541
203 293 264 353 692 143 1029 -163 261 -481 414 -779 375z m269 -133 c246 -63
442 -264 501 -513 33 -140 12 -335 -51 -459 -32 -65 -103 -164 -141 -199 -85
-78 -209 -146 -318 -174 -85 -22 -243 -20 -337 4 -307 79 -518 350 -518 665 1
280 139 504 389 630 130 66 324 85 475 46z"/>
<path d="M1025 1329 c-27 -5 -62 -16 -76 -24 -14 -8 -65 -19 -113 -24 -91 -11
-139 -33 -151 -70 -3 -11 -18 -24 -33 -30 -34 -13 -56 -30 -69 -56 -15 -28 -1
-154 19 -169 8 -6 18 -28 22 -49 5 -29 15 -43 41 -58 18 -11 45 -36 60 -55 14
-18 33 -34 42 -34 18 0 113 -60 113 -72 0 -4 11 -8 24 -8 14 0 38 -11 54 -25
28 -24 35 -25 130 -21 92 3 103 6 144 34 60 41 84 77 69 106 -6 11 -22 47 -35
79 -14 31 -32 60 -41 63 -25 10 -17 24 14 24 19 0 36 -8 48 -23 10 -13 28 -29
41 -36 12 -6 22 -19 22 -29 0 -9 4 -23 9 -30 7 -11 9 -11 14 1 3 8 -8 41 -24
74 l-29 60 -93 32 c-50 17 -104 31 -119 31 -15 0 -38 5 -52 11 -20 10 -30 9
-51 -5 -49 -32 -22 -76 55 -91 69 -13 100 -34 121 -82 40 -94 20 -121 -91
-123 -86 -1 -132 7 -143 26 -4 8 -17 14 -27 14 -11 0 -34 13 -52 28 -18 15
-45 33 -60 40 -16 6 -28 17 -28 24 0 7 -16 26 -35 41 -19 15 -35 37 -35 47 0
11 -10 40 -22 66 l-23 46 35 29 c19 16 47 40 62 53 30 27 86 46 208 71 47 9
97 22 112 27 17 6 33 6 45 -1 24 -12 67 -9 86 7 8 7 21 10 30 6 8 -3 18 -1 22
5 4 8 12 8 25 1 13 -7 21 -7 26 1 8 14 -1 23 -60 54 -36 19 -52 23 -61 15 -9
-8 -15 -8 -20 0 -7 12 -79 11 -150 -1z"/>
</g>
</svg>
