<?xml version="1.0" encoding="UTF-8"?>
<!DOCTYPE svg PUBLIC "-//W3C//DTD SVG 1.1//EN" "http://www.w3.org/Graphics/SVG/1.1/DTD/svg11.dtd">
<svg xmlns="http://www.w3.org/2000/svg" version="1.1" width="512px" height="512px" style="shape-rendering:geometricPrecision; text-rendering:geometricPrecision; image-rendering:optimizeQuality; fill-rule:evenodd; clip-rule:evenodd" xmlns:xlink="http://www.w3.org/1999/xlink">
<g><path style="opacity:0.981" fill="#d64122" d="M 241.5,27.5 C 298.424,24.093 350.424,38.2597 397.5,70C 400.255,71.7112 402.589,73.8779 404.5,76.5C 391.163,92.3344 377.663,108.001 364,123.5C 324.752,95.8151 281.252,85.6485 233.5,93C 170.498,106.667 128.998,144.167 109,205.5C 93.4712,262.343 103.138,314.343 138,361.5C 181.436,411.311 235.603,429.145 300.5,415C 333.053,406.148 359.887,388.648 381,362.5C 381.5,334.169 381.667,305.835 381.5,277.5C 336.828,277.833 292.162,277.5 247.5,276.5C 263.312,257.52 279.312,238.686 295.5,220C 346.832,219.5 398.166,219.333 449.5,219.5C 449.667,276.501 449.5,333.501 449,390.5C 414.33,438.083 367.83,467.583 309.5,479C 246.687,490.839 187.687,480.839 132.5,449C 58.5094,399.185 23.676,329.352 28,239.5C 35.7049,157.187 75.2049,95.687 146.5,55C 176.49,39.6096 208.156,30.4429 241.5,27.5 Z"/></g>
</svg>
