<?xml version="1.0" standalone="no"?>
<!DOCTYPE svg PUBLIC "-//W3C//DTD SVG 20010904//EN"
 "http://www.w3.org/TR/2001/REC-SVG-20010904/DTD/svg10.dtd">
<svg version="1.0" xmlns="http://www.w3.org/2000/svg"
 width="512.000000pt" height="512.000000pt" viewBox="0 0 512.000000 512.000000"
 preserveAspectRatio="xMidYMid meet">

<g transform="translate(0.000000,512.000000) scale(0.100000,-0.100000)"
fill="#000000" stroke="none">
<path d="M2370 4824 c-19 -2 -82 -11 -140 -20 -856 -128 -1561 -715 -1826
-1520 -87 -266 -120 -498 -111 -803 14 -533 191 -1005 524 -1401 338 -401 817
-666 1373 -761 178 -30 525 -37 708 -15 459 56 884 231 1206 496 97 79 261
249 329 341 l57 76 0 846 0 847 -762 0 -763 0 -236 -278 -236 -277 668 -3 669
-2 0 -431 0 -432 -127 -126 c-142 -142 -256 -224 -417 -301 -249 -119 -510
-168 -795 -148 -383 25 -712 177 -992 457 -234 234 -377 501 -451 841 -20 93
-22 132 -22 350 0 218 2 257 22 350 74 340 217 607 451 841 339 338 741 487
1240 458 314 -18 584 -105 820 -264 l84 -56 22 23 c76 79 375 440 371 447 -12
19 -219 149 -330 207 -221 115 -440 189 -701 235 -96 17 -168 22 -360 24 -132
2 -256 1 -275 -1z"/>
</g>
</svg>
